#!OML:ASF F:\VICON\USERDATA\INSTALL\Justin_Nancy\Justin_Nancy.ASF
:FULLY-SPECIFIED
:DEGREES
270
root -2.86186 17.2137 6.8146 -5.44665 -47.4049 8.7676
lowerback 6.53361 -0.758508 -5.73355
upperback 0.459423 -1.40215 1.06045
thorax -3.02699 -0.618901 4.45192
lowerneck -16.52 -3.39174 -10.6662
upperneck 22.2608 -3.30696 5.45642
head 10.1033 -1.84931 3.25564
rclavicle 1.01678e-013 -2.14687e-014
rhumerus -38.186 -18.8538 -73.4575
rradius 25.5733
rwrist 8.59111
rhand -13.8618 12.8739
rfingers 7.12502
rthumb 12.2623 -16.7465
lclavicle 1.01678e-013 -2.14687e-014
lhumerus -24.2355 4.23192 82.7328
lradius 34.0056
lwrist -5.8523
lhand -17.5454 24.1189
lfingers 7.12502
lthumb 8.70906 53.9193
rfemur -28.5252 2.19416 16.4566
rtibia 19.3871
rfoot -6.23493 -3.00883
rtoes -4.71379
lfemur 8.0905 -2.54541 -29.7142
ltibia 19.5951
lfoot -15.0964 -10.7024
ltoes 8.3062
271
root -2.99572 17.2039 6.91845 -5.81104 -47.102 9.11636
lowerback 6.46793 -0.809601 -5.91557
upperback 0.519938 -1.48326 0.904921
thorax -2.91725 -0.663057 4.39633
lowerneck -17.0782 -3.3421 -10.2169
upperneck 22.8286 -3.21469 5.05186
head 10.3907 -1.81995 3.05371
rclavicle -1.16289e-014 -5.56597e-015
rhumerus -38.3519 -19.2828 -73.2912
rradius 25.5014
rwrist 9.09398
rhand -13.776 12.6083
rfingers 7.12502
rthumb 12.345 -17.0072
lclavicle -1.16289e-014 -5.56597e-015
lhumerus -24.1322 3.91449 82.711
lradius 34.0381
lwrist -5.71051
lhand -18.2872 23.8812
lfingers 7.12502
lthumb 7.99315 53.71
rfemur -28.301 2.10865 16.328
rtibia 20.6206
rfoot -6.6887 -2.67161
rtoes -4.6702
lfemur 8.43583 -2.74392 -29.9708
ltibia 20.2075
lfoot -14.8647 -10.8287
ltoes 6.52426
272
root -3.13529 17.1969 7.02481 -6.03807 -46.9209 9.41494
lowerback 6.1454 -0.913159 -6.05681
upperback 0.573411 -1.61273 0.779431
thorax -2.66527 -0.736327 4.34571
lowerneck -16.2967 -3.44999 -10.8867
upperneck 22.2099 -3.43318 5.76708
head 10.0635 -1.89352 3.38698
rclavicle 5.26779e-015 -1.82882e-014
rhumerus -38.3896 -20.0138 -72.9577
rradius 25.1648
rwrist 10.1796
rhand -12.8508 13.4004
rfingers 7.12502
rthumb 13.237 -16.1593
lclavicle 5.26779e-015 -1.82882e-014
lhumerus -24.1238 3.85147 82.6317
lradius 34.1026
lwrist -5.27716
lhand -18.6369 23.9802
lfingers 7.12502
lthumb 7.65566 53.8216
rfemur -28.0074 2.11603 16.1926
rtibia 21.6004
rfoot -7.08234 -2.35928
rtoes -4.22476
lfemur 8.62386 -2.79984 -30.2298
ltibia 20.8446
lfoot -14.8879 -10.5787
ltoes 0.741228
273
root -3.27201 17.2035 7.10888 -5.87486 -46.4774 9.23686
lowerback 6.23532 -1.16454 -6.31848
upperback 0.478027 -1.96937 0.926969
thorax -2.75839 -0.904511 4.67934
lowerneck -16.4841 -3.25185 -10.5208
upperneck 22.3413 -3.1206 5.30368
head 10.103 -1.77173 3.20376
rclavicle 3.08116e-014 1.59028e-015
rhumerus -38.3946 -19.9886 -72.914
rradius 25.045
rwrist 10.3453
rhand -12.8541 13.2423
rfingers 7.12502
rthumb 13.2338 -16.3176
lclavicle 3.08116e-014 1.59028e-015
lhumerus -24.5632 4.65777 82.5602
lradius 34.4934
lwrist -5.40058
lhand -17.6667 24.3102
lfingers 7.12502
lthumb 8.59196 54.1154
rfemur -27.7281 2.11295 16.382
rtibia 22.275
rfoot -6.73054 -2.38964
rtoes -4.78439
lfemur 8.71599 -2.70386 -29.902
ltibia 21.5383
lfoot -14.4983 -11.037
ltoes -3.1382
274
root -3.41349 17.2325 7.20933 -5.57518 -46.4662 8.56132
lowerback 6.36776 -1.2098 -5.98976
upperback 0.489915 -2.01049 1.07013
thorax -2.82091 -0.926376 4.65071
lowerneck -16.5953 -3.22134 -10.2112
upperneck 22.3999 -3.07144 4.98381
head 10.1304 -1.75929 3.04427
rclavicle 3.18055e-014 7.95139e-016
rhumerus -38.5346 -20.4162 -72.6771
rradius 24.9212
rwrist 10.7168
rhand -12.7901 13.0134
rfingers 7.12502
rthumb 13.2955 -16.5425
lclavicle 3.18055e-014 7.95139e-016
lhumerus -24.897 5.2727 82.4949
lradius 34.7416
lwrist -5.79956
lhand -17.1826 24.3231
lfingers 7.12502
lthumb 9.05911 54.1086
rfemur -27.2216 2.64963 16.8698
rtibia 22.5864
rfoot -5.69039 -2.25515
rtoes -2.40886
lfemur 8.97299 -3.15652 -29.4655
ltibia 22.4471
lfoot -13.7878 -10.8483
ltoes -5.06997
275
root -3.55678 17.2634 7.31068 -5.17519 -46.2964 7.93636
lowerback 6.26549 -1.28239 -5.54444
upperback 0.454787 -2.06699 1.16708
thorax -2.80491 -0.959018 4.50191
lowerneck -15.9486 -3.42076 -10.834
upperneck 21.9696 -3.36131 5.44666
head 9.90031 -1.89291 3.27065
rclavicle 3.03147e-015 3.18055e-015
rhumerus -38.813 -20.989 -72.253
rradius 24.8542
rwrist 10.9646
rhand -12.8474 12.7228
rfingers 7.12502
rthumb 13.2403 -16.8367
lclavicle 3.03147e-015 3.18055e-015
lhumerus -25.119 5.32225 82.5411
lradius 34.7427
lwrist -5.57969
lhand -17.8972 24.0509
lfingers 7.12502
lthumb 8.36959 53.8651
rfemur -26.7333 3.1706 17.2367
rtibia 22.5141
rfoot -4.61244 -2.70546
rtoes -1.91635
lfemur 8.86104 -3.84214 -29.0509
ltibia 23.6744
lfoot -12.7094 -10.963
ltoes -6.43656
276
root -3.69672 17.2884 7.41936 -4.75824 -46.0052 7.41098
lowerback 6.20124 -1.47104 -5.30324
upperback 0.287503 -2.29294 1.41481
thorax -2.91513 -1.0657 4.64323
lowerneck -15.5723 -3.44838 -11.3942
upperneck 21.8839 -3.34816 5.64902
head 9.81383 -1.91573 3.43847
rclavicle 1.04859e-014 -1.03368e-014
rhumerus -39.1062 -20.1002 -72.2655
rradius 25.1354
rwrist 10.1624
rhand -13.4138 12.1924
rfingers 7.12502
rthumb 12.6942 -17.4018
lclavicle 1.04859e-014 -1.03368e-014
lhumerus -25.5823 5.62148 82.7534
lradius 34.6937
lwrist -5.04929
lhand -18.7636 23.8421
lfingers 7.12502
lthumb 7.53337 53.6879
rfemur -26.1856 3.2157 17.6141
rtibia 22.2329
rfoot -3.62929 -3.21455
rtoes -5.52472
lfemur 8.49356 -4.36329 -28.6663
ltibia 25.1669
lfoot -11.5119 -11.2752
ltoes -8.95389
277
root -3.83222 17.3152 7.52632 -4.38967 -45.8275 6.71418
lowerback 6.39671 -1.57833 -4.92798
upperback 0.145306 -2.41293 1.67412
thorax -3.16231 -1.11818 4.7231
lowerneck -15.4489 -3.39835 -11.5717
upperneck 22.0453 -3.24105 5.58816
head 9.84123 -1.89489 3.46374
rclavicle 5.47652e-014 1.03368e-014
rhumerus -39.3604 -19.4552 -72.2982
rradius 25.3479
rwrist 9.2049
rhand -13.7773 12.0867
rfingers 7.12502
rthumb 12.3438 -17.5289
lclavicle 5.47652e-014 1.03368e-014
lhumerus -26.04 6.17993 82.9563
lradius 34.6023
lwrist -4.99553
lhand -19.3841 23.5452
lfingers 7.12502
lthumb 6.93439 53.4116
rfemur -25.399 3.12264 18.201
rtibia 21.9351
rfoot -2.70752 -3.23326
rtoes -6.64322
lfemur 8.10324 -4.6716 -28.1174
ltibia 26.9314
lfoot -10.2196 -11.6828
ltoes -11.0863
278
root -3.9693 17.3355 7.6324 -3.87343 -45.9106 5.77195
lowerback 6.42362 -1.57393 -4.23115
upperback 0.158016 -2.35239 1.82545
thorax -3.19219 -1.09728 4.48293
lowerneck -15.6732 -3.30556 -11.3137
upperneck 22.3859 -3.10977 5.37515
head 9.984 -1.84234 3.36671
rclavicle 4.45278e-014 -2.38542e-015
rhumerus -39.4638 -19.8547 -72.1221
rradius 25.2851
rwrist 8.94394
rhand -13.9485 11.8028
rfingers 7.12502
rthumb 12.1787 -17.8227
lclavicle 4.45278e-014 -2.38542e-015
lhumerus -26.1163 6.43729 82.9069
lradius 34.3225
lwrist -5.12476
lhand -19.0938 23.8766
lfingers 7.12502
lthumb 7.21464 53.7336
rfemur -24.6265 3.35244 18.9981
rtibia 21.8071
rfoot -1.96699 -3.07232
rtoes -4.68746
lfemur 7.59179 -4.86218 -27.3146
ltibia 28.8619
lfoot -8.68659 -12.4267
ltoes -11.9616
279
root -4.11356 17.3528 7.74798 -3.46675 -46.1736 5.15779
lowerback 6.11291 -1.52863 -3.78002
upperback 0.169358 -2.24521 1.9362
thorax -3.03011 -1.05478 4.32199
lowerneck -15.8028 -3.21609 -10.9832
upperneck 22.6641 -2.97368 5.00527
head 10.0845 -1.79941 3.20099
rclavicle -8.88567e-014 1.43125e-014
rhumerus -39.7142 -21.2412 -71.1187
rradius 24.7679
rwrist 11.1043
rhand -13.2284 12.8566
rfingers 7.12502
rthumb 12.873 -16.7264
lclavicle -8.88567e-014 1.43125e-014
lhumerus -26.1556 6.38933 82.8832
lradius 34.0349
lwrist -4.70025
lhand -17.8349 24.7307
lfingers 7.12502
lthumb 8.42969 54.5425
rfemur -24.0291 3.62262 19.6001
rtibia 21.8892
rfoot -1.71918 -3.00467
rtoes -4.45982
lfemur 6.8664 -4.96487 -26.7243
ltibia 30.8646
lfoot -6.57484 -13.3652
ltoes -12.1215
280
root -4.24904 17.3647 7.8422 -3.07832 -46.0722 4.70278
lowerback 6.06697 -1.59516 -3.61704
upperback 0.0896055 -2.31819 2.04499
thorax -3.08148 -1.09017 4.34929
lowerneck -15.6621 -3.25538 -11.0031
upperneck 22.6289 -3.03673 4.98577
head 10.0513 -1.83389 3.18868
rclavicle -2.98177e-014 -1.82882e-014
rhumerus -39.6553 -20.795 -71.6476
rradius 25.0292
rwrist 9.87894
rhand -13.9278 11.664
rfingers 7.12502
rthumb 12.1987 -17.9603
lclavicle -2.98177e-014 -1.82882e-014
lhumerus -26.3841 6.81457 82.8513
lradius 33.7411
lwrist -5.01904
lhand -17.5207 24.7768
lfingers 7.12502
lthumb 8.73292 54.5761
rfemur -23.5929 3.6209 20.1061
rtibia 22.095
rfoot -1.72374 -2.88003
rtoes -4.73268
lfemur 5.86588 -5.03284 -26.0519
ltibia 32.9343
lfoot -3.76855 -14.5508
ltoes -10.8132
